/* XPM */
static char *result[] = {
/* columns rows colors chars-per-pixel */
"100 100 73 1 ",
"  c #170625",
". c #341B2E",
"X c #243F32",
"o c #054A37",
"O c #004638",
"+ c #004839",
"@ c #01543D",
"# c #165F36",
"$ c #274F33",
"% c #0F663D",
"& c #1E6B36",
"* c #136C3D",
"= c #16763F",
"- c #18773F",
"; c #1B7A3E",
": c #2A6534",
"> c #246834",
", c #2A6B32",
"< c #2F7533",
"1 c #247639",
"2 c #237E3C",
"3 c #2A7E38",
"4 c #337B33",
"5 c #7B433B",
"6 c #5A2F40",
"7 c #5C3446",
"8 c #005D41",
"9 c #006444",
"0 c #006B46",
"q c #0A7143",
"w c #127440",
"e c #177840",
"r c #187940",
"t c #D2390E",
"y c #D64B0E",
"u c #E9600E",
"i c #F46C0E",
"p c #9F5A5C",
"a c #B86A4A",
"s c #B87364",
"d c #2F8136",
"f c #2B833A",
"g c #338435",
"h c #388734",
"j c #378936",
"k c #3C8A34",
"l c #308639",
"z c #348839",
"x c #549A2F",
"c c #5B9E2E",
"v c #428E32",
"b c #469032",
"n c #4B9431",
"m c #519730",
"M c #529930",
"N c #5EA02D",
"B c #62A32C",
"V c #FF890E",
"C c #FFA30E",
"Z c #E28251",
"A c #FFBC56",
"S c #D28D6D",
"D c #C3967A",
"F c #F3A76F",
"G c #F3A770",
"H c #FFC14A",
"J c #FFC47B",
"K c #FFC87B",
"L c #E6B495",
"P c #E6B698",
"I c #FFE095",
"U c #F7E3D2",
"Y c #FFFEE8",
/* pixels */
"BMgnBxvgvBBBvgdddddkmNxgdgmBBxgdddddddbBBNmvggddddhvxBbddddddkbhkNBBbddhvxBnddhccnhdddddgnBBchhnxBvd",
"xnkxBcngvxNBnkgddddhbxmgddnccbgdddddgkxBNcbhgdddddhkbxkgdddddkbkkxcxvhdgkncvddhxxvhddddhkmBNxhhmcBnk",
"hvcNBBxhhncBNmhddddghnvgddvnkhgdddddhcNBcnhgdddddddghhgddddddknbkhhhkvhdgknkddhnvggddddkxBBxbhvNBBNc",
"&4nMMxnggknxxxhdddddghhgdghhgdddddddhxccnkgddddddddddddddddddknbvgghvbhddhvhddgkhgddddgkcxxvhghnnxmx",
"o%ggghggdgghvbhddddddggdddgdddddddddhnnnkggddddddddddddddddddknnvghbnbhdddgdddgdgddddddhnvgggdghgggh",
",<h44hhg3g3dhkgdddddddddddddddddddddhhkkgddddddddddddddddddddhkkhghnvhgddddddddddddddddhkggdddghgggh",
"Nxnvgvvggd3gdgdddddddddddddddddddddddgggddddddddddddddddddddddgdddhnkgddddddddddddddddddgddgddhvkgkn",
"BBxvdknbbhhg3dddddddddddddddddddddddddddddddddddddddddddddddddddddhhgddddddddddddddddddddddhkvnnkgnx",
"BBBngkmNcnkg3g3gddddddddddddddddddddddddddddddddddddddddddddddddddddddddddddddddddddddddddgknNcnkgxB",
"nmxnkhvcNcb3g3d4ddddddddddddddddddddddddddddddddddddddddddddddddddddddddddddddddddddddddddgncBxkkknx",
"dhbbnhhxBBngddddddddddddddddddddddddddddddddddddddddddddddddddddddddddddddddddddddddddddddgmBBngknnb",
"dghhhghknmnkhddddddddddddddddddddddddddddddddddddddddddddddddddddddddddddddddddddddddddddhvnnnkdghkh",
"dgghhgdghvbvhddddddddddddddddddddddddddddddddddddddddddddddddddddddddddddddddddddddddddddhvnvggggghh",
"dhmxmbkvkhhhdddddddddddddddddddddddddddddddddddddddddddddddddddddddddddddddddddddddddddgdhhhhkvvnmmm",
"hvxNBcnnkgddddddddddddddddddddddddddddddddddddddddddddddddddddddddddddddddddddddddddddhhhggggvnncBNc",
"vkkmBNxkggdddddddddddddddddddddddddddddddddddddddddddddddddddddddddddddddddddddddddddhnxxnvgggvcBBnk",
"vhdvccmhddddddddddddddddddddddddddddddddddddddddddddddddddddddddddddddddddddddddddddghmxxnvgddkxxxkd",
"gh4hhhhddddddddddddddddddddddddddddddddddddddddddddddddddddddddddddddddddddddddddddd3ghhkhggdgghkkgd",
"hh33ddddddddddddddddddddddddddddddddddddddddddddddddddddddddddddddddddddddddddddddddg3ddgddddddd3ddd",
"bhggdddddddddddddddddddddddddddddddddddddddddddddddddddddddddddddddddddddddddddddddddgddddddddddg4dd",
"vhgdddgkkhgddddddddddddddddddddddddddddddddddddddddddddddddddddddddddddddddddddddddddddddddghvhddddd",
"gdddddhxcbkdddddddddddddddddddddddddddddddddddddddddddddddddddddddddddddddddddddddddddddddgkncnhdddd",
"dddgkknNckhdddddddddddddddddddddddddddddddddddddddd4d3g4ddddddddddddddddddddddddddddddddddghnccbkhgd",
"dddkncBBxgdddddddddddddddddddddddddd:::$$$         ,,:         $$$:::ddddddddddddddddddddg3ghcBBxnhd",
"dghncNNmkgdddddddddddddddddddddddddd:::$$$         :::         $$$,::3ddddddddddddddddddddddgvxBNxbh",
"dhvcBBchggdddddddddddddddddddddddddd:::$$$         :::         $$$:::gdddddddddddddddddddddddgvNBBxn",
"dghvbbkgdddddddddddddddddddddddddddddddddddddddd666777ppppppppppppdd3dddddddddddddddddddddddddhbbbkh",
"ddgggggddddddddddddddddddddddddddddddddddddddddd666777ppppppppppppddg4ddddddddddddddddddddddddddgggg",
"dknmnkdddddddddddddddddddddddddddddddddddddddddd666777ppppppppppppddddddddddddddddddddddddddddddkxnx",
"gkNNBvggdddddddddddddddddddddddddddddddddd   ...DDDLLLUUUUUUYYYYYY666dddddddddddgddddddddddddddgnBNN",
"dhkxBnkgdddddddddddddddddddddddddddddddddd   ...DDDLLLUUUUUUYYYYYY666ddddddddd3g3gddddddddddddgvxBnv",
"dddvcnkhghgggdddddddddddddddddddddddddd   ZZZJJJIII555JJJYYYYYYUUUUUU666ddddd4g3g3dddddddgghhghvnxkg",
"dddhkhgghxnkhdddddddddddddddddddddddddd   ZZZJJJIII555JJJYYYYYYUUUUUU666dddddddddddddddddhvxnggghkg4",
"ddd4dghhnBcbhdddddddddddddddddddddddddd   ZZZJJJIII555JJJYYYYYYUUUUUU666ddddddddddddddddgknccbhhgddg",
"dd3gghnxNBcbhddddddddddddddddddddddd      ZZZGGGJJJZZZaaaYYYYYYaaaUUU...dddddddddddddddddhncBcxvhdg3",
"ddg3gbxNBcmkhddddddddddddddddddddddd      ZZZGGGJJJZZZaaaYYYYYYaaaUUU...dddddddddddddddddhvxNBcxvd3g",
"ddddgmNBcmvggddddddddddddddddddddddd      ZZZFFFJJJZZZaaaYYYYYYaaaUUU...ddddddddddddddddddhvxNBBbddd",
"vkhggnccxkhdddddddddddddddddddddd   JJJpppZZZFFFFFFFFFZZZJJJYYYKKK...ddddddddddddddddddddddhvxcNbdgh",
"Nxnhgknmvgddddddddddddddddddddddd   JJJpppZZZGFFFFFFFFZZZJJJYYYKKK...ddddddddddddddddddddddghbnnhgkn",
"Bcvhghkkhdddddddddddddddddddddddd   JJJpppZZZGFFFFFFFFZZZJJJYYYKKK...dddddddddddddddddddddddghkkhghk",
"Bxgddddddddddddddddddddddddddd   IIISSSpppyyyuuuiiiuuuuuutttUUUyyy   3ddddddddddddddddddddddddddddgd",
"nkgddddddddddddddddddddddddddd   IIISSSpppyyyuuuiiiuuuuuutttUUUyyy   4dddddddddddddddddddddddddddddd",
"dddddddddddddddddddddddddddddd   IIISSSpppyyyuuuiiiuuuuuutttUUUyyy   ddddddddddddddddddddddddddddgdd",
"dddhkhdddddddddddddddddddddddd   JJJppp   tttyyytttiiiiiiuuuLLLttt   gddddddddddddddddddddddddddgkgd",
"dddknhgddddddddddddddddddddddd   JJJppp   tttyyytttiiiiiiuuuLLLttt   dddddddddddddddddddddddddghvnhd",
"dddvcxbhdddddddddddddddddddddd   JJJppp   tttyyytttiiiiiiuuuLLLttt   dddddddddddddddddddddddddhnxxkd",
"ggdnBBNkgddddddddddddddddddddd   SSS      yyyuuuyyyCCCVVVuuuAAAyyy   ddddddddddddddddddddddddgbBBBvd",
"vhgnBBNbhddddddddddddddddddddd   SSS      yyyuuuyyyCCCVVVuuuAAAyyy   dddddddddddddddddddddddgknBBNvd",
"vkgbNBNxvgdddddddddddddddddddd   SSSppp   yyyiiiyyyHHHVVVtttYYYyyy   dddddddddddddddddddddddhbxBBcvd",
"hggkmNBNmgdddddddddddddddddddd   SSSppp   yyyiiiyyyHHHVVVtttYYYyyy   dddddddddddddddddddddddhxBBcnhd",
"dddhvmxcbgdddddddddddddddddddd   SSSppp   yyyiiiyyyHHHVVVtttYYYyyy   dddddddddddddddddddddddhncxnvgg",
"dddgghhhhddddddddddddddddddddd   pppsss   yyyVVViiiiiiCCCiiitttVVV   dddddddddddddddddddddddghhhgggg",
"dddddddddddddddddddddddddddddd   pppsss   yyyVVViiiiiiCCCiiitttVVV   dddddddddddddddddddddddddddgddd",
"dddddddddddddddddddddddddddddd   pppsss   yyyVVViiiiiiCCCiiitttVVV   ddddddddddddddddddddddddddddddd",
"dddhvkhgdddddddddddddddddddddddd4   sssppptttyyytttuuuiiiyyyiiittt   dddddddddddddddddddddddddghkvgd",
"dddbNmvgdddddddddddddddddddddddd3   sssppptttyyytttuuuiiiyyyiiittt   dddddddddddddddddddddddddhbxcvd",
"dhbxBnhgddddddddddddddddddddddddg   sssppptttyyytttuuuiiiyyyiiittt   dddddddddddddddddddddddddgkxBnn",
"dvNBNvgddddddddddddddddddddddddd3   pppsssyyyuuuyyyCCCVVVuuuVVVyyy   dddddddddddddddddddddddddddnBBB",
"dvBNxkddddddddddddddddddddddddddg   pppsssyyyuuuyyyCCCVVVuuuVVVyyy   dddddddddddddddddddddddddddvxNB",
"dvNxbhdgdddddddddddddddddddddddd4   pppsssyyyuuuyyyCCCVVVuuuVVVyyy   dddddddddddddddddddddddddddkncB",
"kvbvhgghkkhddddddddddddddddddddddddd   pppyyyiiiyyyHHHVVViiiCCCyyy   ddddddddddddddddddd3gg4ddddghvn",
"bkgddghbnbhddddddddddddddddddddddddd   pppyyyiiiyyyHHHVVViiiCCCyyy   dddddddddddddddddddg33ggggdgddd",
"hhddgvxcmkhddddddddddddddddddddddddd   pppyyyiiiyyyHAHVVViiiCCCyyy   ddddddddddddddddddd3ggkvnvgdddd",
"ddgghxNNngddddddddddddddddddddddddddddd   yyyVVCiiiiiiCCCiiiiiiyyy   dddddddddddddddddddg3gknNxhgddd",
"dhkmxNcnhdddddddddddddddddddddddddddddd   yyyVVViiiiiiCCCiiiiiiyyy   ddddddddddddddddddddddgvcNMvg33",
"dgkmcxmhddddddddddddddddddddddddddddddd   pppZZZGGGJJJUUUYYYUUUPPP   dddddddddddddddddddddddhMNBnggg",
"ddhhkkhgddddddddddddddddddddddddddddddd   pppZZZGGGJJJUUUYYYUUUPPP   dddddddddddddddddddddddghnBMvgg",
"ddddddddghgdddddddddddddddddddddddddddd   pppZZZGGGKJJUUUYYYUUUPPP   dddddddddddddddddddddddgdhxnvkg",
"dgd4ddddhkhdddddddddddddddddddddd:::$$$XXX                        $$$:::ddddddddddddddddddddddghhgkb",
"kvkkhggkbxvdddddddddddddddddddddd:::$$$XXX                        $$$:::ddddddddddddddddddddgghvvvnx",
"NNcxvhhxNNbdddddddddddddddddddddd:::$$$XXX                        $$$:::ddddddddddddddddddddgvnccNNB",
"BNcmkvncBcbdddddddddddddddddddddddddddddddddddddddddd4g3ddddddddddddddddddddddddddddddddddggvmcBccxn",
"BNnkgmNBcmkdddddddddddddddddddddddddddddddddddddddddddddddddddddddddddddddddddddddddddddddgkncBBxnkg",
"mbkhgnxmbkhdddddddddddddddddddddddddddddddddddddddddddddddddddddddddddddddddddddddddddddddggvnnnbhgg",
"gdgdgkvhdddddddddddddddddddddddddddddddddddddddddddddddddddddddddddddddddddddddddddddddddddd3gggdddg",
"nbkgdhhgddddddddddddddddddddddddddddddddddddddddddddddddddddddddddddddddddddddddddddddddddddgdgkvnnn",
"Bcnkdddddddddddddddddddddddddddddddddddddddddddddddddddddddddddddddddddddddddddddddddddddddd3ghvMBBB",
"xnhhddddddddddddddddddddddddddddddddddddddddddddddddddddddddddddddddddddddddddddddddddddddddg3hhnMBB",
"vvhgggggddddddddddddddddddddddddddddddddddddddddddddddddddddddddddddddddddddddddddddddddddddddddhnMN",
"hkmmxvhgddddddddddddddddddddddddddddddddddddddddddddddddddddddddddddddddddddddddddddddddddddddddghvv",
"hbBBcmvggggggddddddddddddddddddddddddddddddddddddddddddddddddddddddddddddddddddddddddddddggggg344ddd",
"xcBxkhgdhkvvhddddddddddddddddddddddddddddddddddddddddddddddddddddddddddddddddddddddddddd3hvvkgddl4dd",
"xccnhdghkmbvgdddddddddddddddddddddddddddddddddddddddddddddddddddddddddddddddddddddddddddghbnnkhdlggh",
"kvnnkhhmccnggddddddddddddddddddddddddddddddddddddddddddddddddddddddddddddddddddddddddddd3ghmNcbgkvvv",
"kbxbkhvcBcbdddddddddddddddddddddddddddddddddddddddddddddddddddddddddddddddddddddddddddddddhnNBxhkvnM",
"cccnhknccmkdddddddddddddddddddddddddddddddddddddddddddddddddddddddddddddddddddddddddddddddgvxNxbkhmN",
"BBcbgvnxnvhgdddddddddddddddddddddddddddddddddddddddddddddddddddddddddddddddddddddddddddddddhbnmnh4nc",
"Bcxkgkvhgggddddddddddddddddddddddddddddgdddddddddddddddddddddddddddddddddddddddddddddddddddgghkbv3vn",
"kkkhdhhgdddghhddddddddddddddddddddddgghhgddddddddddddddddddddddddddddddddddddddddddddddghgddddgkh4kv",
"q=dddddgdgddkkhddddddddddddgddddddddgbbnhddddddddddddddddddddddddddddddddddddddddddddddhbhdddddgg3ll",
"=3vnbnvhghvnxmhddddddhhgddhhgdddddddkmxxbhhdddddddddddddddddddddghhddddddghhddddghhddddkxmbkhghbnbnb",
"dvNBBBchhbxBBchdddddgvkgdgkvhdddddddvNBBxvgdddddddddddddddddddddhvkgddddghbhddddhnkddddkBBBxvgvBBBBB",
"nnbxBcnhkxNBxvhdddghkxngddbxnvgdddddjbxBcxvhg3ddddghbnkg3g4dll3ghxxnhddghbcvddghbxbddddhnxNNnhhxNBmn",
"cnhnBxvhvcBckdddddgkmNxgddmBBxhdddddddnBBBxvgddddghnMBbdg3dd44g3kxBBngdhbxBbddhbxBbddddddnNNchhbxBb4",
",4ncNnhghvbvhddddddnNNxhdghnNcxkddghhgkMNNnvgdddgbMxNBbdggkhddl3jvxBcnhhmNBnddhmNBbddddddhbbkdghnBxn",
"O,NNxh33333333333dgmNNbd333gxBBnfdhbvdgbmxnhd3fdhxBBBBv33zbvggzf33kxNchhcBBk3fhcBNbdfdgggddggd3dvcBB",
"81Nb2ewwwqwwwwwqw3kMczrewwwrbcBkwjMcb;e;;2;eewwfbcBBNMfeq2MMMbj;===2kn22MNMgwwfMNMlww2bnv2rkb;wwrfMB",
"0;nf9000000090000;knbe00000qfbcz0kBcjq0000000002kMMMnkr00rbNBcbr00002zerMxvr00wvnkr00eMcn2qbM;q000zM",
"0qr%+900000000000qe;eq000000qfnfqjxle0000000000qrr;r;eq00qrjBBM;0000qwqrMbrq00qereq00rMNNfqvNMf088wr",
"0008O800000000000000000000000ev30kxr00000000000000000000000fBBc;0000000rMv00000000000rMBBlqvBBbq+880"
};
