/* XPM */
static char *_1ad32c216534187a810daccb00ae9f6a64sFZ9I1UOIxwPZ[] = {
/* columns rows colors chars-per-pixel */
"100 100 5 1 ",
"  c #64A42C",
". c #2F8136",
"X c #499231",
"o c #004337",
"O c #006B46",
/* pixels */
"  .. XX..   .......XX  ...    .........   XX.......XX .......XX..   ....XX ....  X.......    ..X  ..",
"  .. XX..   .......XX  ...    .........   XX.......XX .......XX..   ....XX ....  X.......    ..X  ..",
"..     ..XX   .......XX...XX.........   XX...................XXXX...XX....X....XX.......   XX..     ",
"..     ..XX   .......XX...XX.........   XX...................XXXX...XX....X....XX.......   XX..     ",
"oo..........XX.......................XXX.....................XXXX..XXX..................X...........",
"oo..........XX.......................XXX.....................XXXX..XXX..................X...........",
"  XX.XX............................................................X...........................X..XX",
"  XX.XX............................................................X...........................X..XX",
"    .XX  XX................................................................................XX  X..  ",
"..XXX..    ................................................................................    .XXXX",
"..XXX..    ................................................................................    .XXXX",
".........XXX.............................................................................XXXX.......",
".........XXX.............................................................................XXXX.......",
"..   XXXX....................................................................................XXX    ",
"..   XXXX....................................................................................XXX    ",
"XX..   ...............................................................................   XX....   ..",
"XX..   ...............................................................................   XX....   ..",
"....................................................................................................",
"....................................................................................................",
"XX..................................................................................................",
"XX..................................................................................................",
".......  XX................................................................................XX  .....",
".......  XX................................................................................XX  .....",
"....X    ....................................................................................   XX..",
"....X    ....................................................................................   XX..",
"..XX   ........................................................................................   XX",
"....................................................................................................",
"....................................................................................................",
"..   ...........................................................................................    ",
"..   ...........................................................................................    ",
".... XX........................................................................................X  ..",
".... XX........................................................................................X  ..",
".........  X.............................................................................XX  .......",
".........  X.............................................................................XX  .......",
".....XX    X.............................................................................XX    X....",
".....XX    X.............................................................................XX    X....",
".....    XX................................................................................XX   ....",
".....    XX................................................................................XX   ....",
"  XX.XXXX....................................................................................XXX..XX",
"  XX.XXXX....................................................................................XXX..XX",
"  ..................................................................................................",
"  ..................................................................................................",
"....................................................................................................",
"....X...........................................................................................XX..",
"....X...........................................................................................XX..",
"....   ........................................................................................   ..",
"....   ........................................................................................   ..",
"XX..   XX....................................................................................XX   ..",
"XX..   XX....................................................................................XX   ..",
"....X    ....................................................................................   XX..",
"....X    ....................................................................................   XX..",
"....................................................................................................",
"....................................................................................................",
"....................................................................................................",
"....................................................................................................",
".... XX........................................................................................X  ..",
".... XX........................................................................................X  ..",
"..   ...........................................................................................    ",
"..  X...........................................................................................XX  ",
"..  X...........................................................................................XX  ",
"XX.....XXXX.........................................................................................",
"XX.....XXXX.........................................................................................",
".....    ..................................................................................XX  .....",
".....    ..................................................................................XX  .....",
"..XX   ......................................................................................   ....",
"..XX   ......................................................................................   ....",
"............................................................................................... XX..",
"............................................................................................... XX..",
".........XX.......................................................................................XX",
".........XX.......................................................................................XX",
"    X..    ..................................................................................XX     ",
"    X..    ..................................................................................XX     ",
"  XX.    XX................................................................................XX   XX..",
"  XX.    XX................................................................................XX   XX..",
".....XX.............................................................................................",
"  XX...........................................................................................X    ",
"  XX...........................................................................................X    ",
"XX..............................................................................................XX  ",
"XX..............................................................................................XX  ",
"..   XX.............................................................................................",
"..   XX.............................................................................................",
"    .....XXX.............................................................................XXXX.......",
"    .....XXX.............................................................................XXXX.......",
"..XXX..    ................................................................................    .XXXX",
"..XXX..    ................................................................................    .XXXX",
"    .XX  XX................................................................................XX  X..  ",
"    .XX  XX................................................................................XX  X..  ",
"  XX.XX........................................................................................X..XX",
"  XX.XX........................................................................................X..XX",
"OO..........XX.......................XXX................................................X...........",
"OO..........XX.......................XXX................................................X...........",
"..     ..XX   .......XX...XX.........   XX.......................XX.......X......X......   XX..     ",
"  .. XX..   .......XX  ...    .........   XX.......XX ...........   ....XX ....XX .......    ..X  ..",
"  .. XX..   .......XX  ...    .........   XX.......XX ...........   ....XX ....XX .......    ..X  ..",
"oo   ..............    .....    ...XX..X  XX.....     ....XX.......   ..   ....   ..............    ",
"oo   ..............    .....    ...XX..X  XX.....     ....XX.......   ..   ....   ..............    ",
"OO  OOOOOOOOOOOOOOX  OOOOOOOXX  O    OOOOOOOOOOXX    XOOOO   XXOOOOOXXOO  XOOOO  XOOOO  XOO  OOOOO  ",
"OO  OOOOOOOOOOOOOOX  OOOOOOOXX  O    OOOOOOOOOOXX    XOOOO   XXOOOOOXXOO  XOOOO  XOOOO  XOO  OOOOO  ",
"OOOOoOOOOOOOOOOOOOOOOOOOOOOOOOXXO  OOOOOOOOOOOOOOOOOOOOOOOOO   OOOOOOOOO  OOOOOOOOOOOO   OO    OooOO",
"OOOOoOOOOOOOOOOOOOOOOOOOOOOOOOXXO  OOOOOOOOOOOOOOOOOOOOOOOOO   OOOOOOOOO  OOOOOOOOOOOO   OO    OooOO"
};
